<svg width="19" height="12" viewBox="0 0 19 12" fill="none" xmlns="http://www.w3.org/2000/svg">
<path d="M9.37522 8.35732C9.37522 6.87897 8.70865 5.78621 7.33152 5.37662C8.33631 4.87184 8.86032 4.10707 8.86032 2.9175C8.86032 0.571981 7.19806 0 5.28024 0H0V11.7764H5.42812C7.46347 11.7764 9.37522 10.75 9.37522 8.35732ZM2.46154 2.01033H4.77141C5.65941 2.01033 6.45869 2.27272 6.45869 3.35589C6.45869 4.35586 5.83686 4.75824 4.9572 4.75824H2.46154V2.01033ZM2.46078 9.77648V6.53338H5.14375C6.2274 6.53338 6.91293 7.00857 6.91293 8.21493C6.91293 9.40449 6.09469 9.77648 5.09294 9.77648H2.46078Z" fill="#F7F6F9"/>
<path d="M14.2519 11.9999C16.1887 11.9999 17.443 11.0823 18.0466 9.13196H16.081C15.8694 9.85994 14.9974 10.2447 14.3209 10.2447C13.0159 10.2447 12.3303 9.44075 12.3303 8.0744H18.1793C18.3644 5.34009 16.9205 3.00977 14.2512 3.00977C11.7798 3.00977 10.1024 4.9633 10.1024 7.52241C10.1024 10.1783 11.6918 11.9999 14.2519 11.9999V11.9999ZM14.1822 4.77931C15.3007 4.77931 15.8634 5.47048 15.9574 6.60085H12.3334C12.4069 5.48008 13.1144 4.77931 14.1822 4.77931Z" fill="#F7F6F9"/>
<path d="M11.8797 0.619141H16.4206V1.7791H11.8797V0.619141Z" fill="#F7F6F9"/>
</svg>
