<svg width="13" height="13" viewBox="0 0 13 13" fill="none" xmlns="http://www.w3.org/2000/svg">
<path d="M6.5 0C10.0899 0 13 2.91009 13 6.5C13 9.386 11.1184 11.8315 8.51538 12.68C8.51615 12.6777 8.51729 12.6739 8.51729 12.6739C8.51729 12.6739 8.07874 12.4681 8.08791 12.1011C8.09824 11.6973 8.08791 10.7548 8.08791 10.4088C8.08791 9.815 7.71206 9.39403 7.71206 9.39403C7.71206 9.39403 10.6596 9.42729 10.6596 6.28206C10.6596 5.06847 10.0253 4.43721 10.0253 4.43721C10.0253 4.43721 10.3583 3.14179 9.90982 2.59235C9.40703 2.53806 8.50697 3.07297 8.12232 3.32265C8.12232 3.32265 7.51324 3.07297 6.49962 3.07297C5.48638 3.07297 4.87691 3.32265 4.87691 3.32265C4.49265 3.07297 3.59221 2.53806 3.08941 2.59235C2.64091 3.14179 2.97394 4.43721 2.97394 4.43721C2.97394 4.43721 2.33962 5.06885 2.33962 6.28206C2.33962 9.42729 5.28718 9.39403 5.28718 9.39403C5.28718 9.39403 4.99009 9.72974 4.92547 10.223C4.71976 10.2929 4.41694 10.379 4.17262 10.379C3.53294 10.379 3.04621 9.75726 2.86803 9.46935C2.69215 9.18565 2.33159 8.94744 1.99588 8.94744C1.7745 8.94744 1.66668 9.05794 1.66668 9.1845C1.66668 9.31106 1.97676 9.39938 2.18171 9.63376C2.61338 10.1285 2.60574 11.2404 4.14394 11.2404C4.31103 11.2404 4.65209 11.1995 4.90865 11.1647C4.90712 11.5149 4.90674 11.8843 4.91209 12.1003C4.92126 12.4674 4.48271 12.6731 4.48271 12.6731C4.48271 12.6731 4.48385 12.6769 4.48462 12.6792C1.88156 11.8315 0 9.386 0 6.5C0 2.91009 2.91009 0 6.5 0Z" fill="white"/>
</svg>
