<svg width="13" height="12" viewBox="0 0 13 12" fill="none" xmlns="http://www.w3.org/2000/svg">
<path d="M0.414976 12.0001H2.07629C2.30548 12.0001 2.49126 11.8091 2.49126 11.5735V4.10918C2.49126 3.87356 2.30548 3.68262 2.07629 3.68262H0.414976C0.185757 3.68262 0 3.87356 0 4.10918V11.5735C0 11.8091 0.185757 12.0001 0.414976 12.0001Z" fill="#F7F6F9"/>
<path d="M0.414976 2.36958H2.07629C2.30548 2.36958 2.49126 2.17862 2.49126 1.94302V0.426564C2.49126 0.190968 2.30548 0 2.07629 0H0.414976C0.185757 0 0 0.190968 0 0.426564V1.94302C0 2.17862 0.185757 2.36958 0.414976 2.36958Z" fill="#F7F6F9"/>
<path d="M12.1572 4.54839C11.9237 4.23251 11.5795 3.97275 11.1243 3.76914C10.6692 3.56567 10.1668 3.46387 9.6171 3.46387C8.50122 3.46387 7.55567 3.90162 6.78049 4.77731C6.62624 4.95154 6.5141 4.91345 6.5141 4.67783V4.10918C6.5141 3.87356 6.32829 3.68262 6.0991 3.68262H4.61508C4.38586 3.68262 4.2001 3.87356 4.2001 4.10918V11.5735C4.2001 11.8091 4.38588 12.0001 4.61508 12.0001H6.27639C6.50561 12.0001 6.69137 11.8091 6.69137 11.5735V8.97762C6.69137 7.89617 6.7549 7.1549 6.88196 6.75393C7.00897 6.35296 7.24399 6.03098 7.58679 5.78794C7.92964 5.54491 8.31673 5.42333 8.74826 5.42333C9.08514 5.42333 9.37331 5.50841 9.61273 5.67858C9.85212 5.84873 10.025 6.08708 10.1314 6.39397C10.2378 6.70081 10.291 7.37671 10.291 8.42176V11.5735C10.291 11.8091 10.4768 12.0001 10.706 12.0001H12.3673C12.5965 12.0001 12.7822 11.8091 12.7822 11.5735V7.34632C12.7822 6.59906 12.7364 6.02487 12.6449 5.6239C12.5534 5.22293 12.3908 4.86442 12.1572 4.54839Z" fill="#F7F6F9"/>
</svg>
