<?xml version="1.0" standalone="no"?>
<!DOCTYPE svg PUBLIC "-//W3C//DTD SVG 20010904//EN"
 "http://www.w3.org/TR/2001/REC-SVG-20010904/DTD/svg10.dtd">
<svg version="1.0" xmlns="http://www.w3.org/2000/svg"
 width="558.000000pt" height="558.000000pt" viewBox="0 0 558.000000 558.000000"
 preserveAspectRatio="xMidYMid meet">
<metadata>
Created by potrace 1.14, written by Peter Selinger 2001-2017
</metadata>
<g transform="translate(0.000000,558.000000) scale(0.100000,-0.100000)"
fill="#000000" stroke="none">
<path d="M2254 4502 c-74 -26 -107 -50 -98 -70 4 -9 17 -48 28 -87 20 -66 21
-93 21 -465 -1 -656 -53 -1252 -151 -1706 -124 -584 -276 -858 -500 -904 -71
-15 -169 3 -229 41 -50 32 -108 113 -145 204 l-23 56 -24 -23 c-68 -63 -108
-216 -84 -315 34 -137 177 -223 369 -223 109 0 196 21 282 66 176 92 313 252
435 507 263 549 397 1258 437 2298 14 369 7 458 -40 542 -52 92 -156 121 -278
79z"/>
<path d="M3705 4510 c-130 -15 -429 -62 -437 -69 -4 -3 -1 -31 7 -61 26 -100
37 -279 25 -428 -16 -208 -35 -348 -149 -1127 -98 -667 -103 -845 -28 -995 25
-50 42 -70 79 -93 89 -55 222 -32 301 51 l28 29 -30 48 c-63 100 -82 198 -82
420 1 144 22 430 33 440 2 1 44 15 93 29 335 99 641 253 839 421 132 113 254
295 306 460 32 99 39 312 16 419 -51 225 -197 368 -444 433 -84 22 -122 26
-287 28 -104 2 -226 0 -270 -5z m350 -205 c91 -24 158 -60 208 -114 91 -97
121 -192 122 -381 0 -114 -4 -146 -23 -210 -81 -255 -250 -422 -565 -556 -96
-41 -302 -102 -312 -92 -3 2 29 215 69 474 71 444 96 629 111 806 l7 77 31 4
c89 11 296 6 352 -8z"/>
</g>
</svg>
